HIERARCHY
ROOT Hips
{
  OFFSET -416.7 92.7434 645.656
  CHANNELS 6 Xposition Yposition Zposition Zrotation Xrotation Yrotation
  JOINT Spine
  {
    OFFSET -1.07457e-05 8 2.44472e-05
    CHANNELS 6 Xposition Yposition Zposition Zrotation Xrotation Yrotation
    JOINT Spine1
    {
      OFFSET 0 8.00001 -1.55039e-05
      CHANNELS 6 Xposition Yposition Zposition Zrotation Xrotation Yrotation
      JOINT Spine2
      {
        OFFSET 1.88413e-05 8 -3.07591e-05
        CHANNELS 6 Xposition Yposition Zposition Zrotation Xrotation Yrotation
        JOINT Spine3
        {
          OFFSET 0 8 0
          CHANNELS 6 Xposition Yposition Zposition Zrotation Xrotation Yrotation
          JOINT Neck
          {
            OFFSET 0.000155199 17.0001 -2.09031e-05
            CHANNELS 6 Xposition Yposition Zposition Zrotation Xrotation Yrotation
            JOINT Head
            {
              OFFSET 3.86909e-05 10.8 -1.85457e-05
              CHANNELS 6 Xposition Yposition Zposition Zrotation Xrotation Yrotation
              End Site
              {
                OFFSET 0 20.25 0
              }
            }
          }
          JOINT LeftShoulder
          {
            OFFSET 5.00016 16.9999 -0.000249756
            CHANNELS 6 Xposition Yposition Zposition Zrotation Xrotation Yrotation
            JOINT LeftShoulder2
            {
              OFFSET 6.45 0 0
              CHANNELS 6 Xposition Yposition Zposition Zrotation Xrotation Yrotation
              JOINT LeftArm
              {
                OFFSET 6.45001 0.000234579 0.000810196
                CHANNELS 6 Xposition Yposition Zposition Zrotation Xrotation Yrotation
                JOINT LeftForeArm
                {
                  OFFSET -1.88411e-05 -32.4 -1.99997
                  CHANNELS 6 Xposition Yposition Zposition Zrotation Xrotation Yrotation
                  JOINT LeftHand
                  {
                    OFFSET -1.8978e-05 -25.65 1.99999
                    CHANNELS 6 Xposition Yposition Zposition Zrotation Xrotation Yrotation
                    JOINT LeftHandThumb1
                    {
                      OFFSET -0.499979 -1.50001 2.65
                      CHANNELS 6 Xposition Yposition Zposition Zrotation Xrotation Yrotation
                      JOINT LeftHandThumb2
                      {
                        OFFSET -2.32972e-05 -3.8 3.7
                        CHANNELS 6 Xposition Yposition Zposition Zrotation Xrotation Yrotation
                        JOINT LeftHandThumb3
                        {
                          OFFSET 3.74481e-05 -3.00001 2.70002
                          CHANNELS 6 Xposition Yposition Zposition Zrotation Xrotation Yrotation
                          End Site
                          {
                            OFFSET 0 -2.3 1.79999
                          }
                        }
                      }
                    }
                    JOINT LeftHandIndex
                    {
                      OFFSET 0 -1.90001 1.6
                      CHANNELS 6 Xposition Yposition Zposition Zrotation Xrotation Yrotation
                      JOINT LeftHandIndex1
                      {
                        OFFSET 0 -8.29999 1.89999
                        CHANNELS 6 Xposition Yposition Zposition Zrotation Xrotation Yrotation
                        JOINT LeftHandIndex2
                        {
                          OFFSET 6.58635e-05 -4.50001 1.65506e-05
                          CHANNELS 6 Xposition Yposition Zposition Zrotation Xrotation Yrotation
                          JOINT LeftHandIndex3
                          {
                            OFFSET -2.34938e-05 -3.40001 -1.25025e-05
                            CHANNELS 6 Xposition Yposition Zposition Zrotation Xrotation Yrotation
                            End Site
                            {
                              OFFSET 3.343e-05 -2.59997 1.59422e-05
                            }
                          }
                        }
                      }
                    }
                    JOINT LeftHandMiddle
                    {
                      OFFSET -0.250006 -2.20001 0.399997
                      CHANNELS 6 Xposition Yposition Zposition Zrotation Xrotation Yrotation
                      JOINT LeftHandMiddle1
                      {
                        OFFSET 1.18291e-05 -8.3 0.999995
                        CHANNELS 6 Xposition Yposition Zposition Zrotation Xrotation Yrotation
                        JOINT LeftHandMiddle2
                        {
                          OFFSET 0 -4.64999 0
                          CHANNELS 6 Xposition Yposition Zposition Zrotation Xrotation Yrotation
                          JOINT LeftHandMiddle3
                          {
                            OFFSET 1.02596e-05 -3.3 1.34263e-05
                            CHANNELS 6 Xposition Yposition Zposition Zrotation Xrotation Yrotation
                            End Site
                            {
                              OFFSET -4.34704e-05 -2.69999 0
                            }
                          }
                        }
                      }
                    }
                    JOINT LeftHandRing
                    {
                      OFFSET -0.499965 -2.15001 -0.799984
                      CHANNELS 6 Xposition Yposition Zposition Zrotation Xrotation Yrotation
                      JOINT LeftHandRing1
                      {
                        OFFSET -1.38419e-05 -7.74999 -0.20001
                        CHANNELS 6 Xposition Yposition Zposition Zrotation Xrotation Yrotation
                        JOINT LeftHandRing2
                        {
                          OFFSET 0 -3.8 0
                          CHANNELS 6 Xposition Yposition Zposition Zrotation Xrotation Yrotation
                          JOINT LeftHandRing3
                          {
                            OFFSET -2.42492e-05 -3.40001 -1.81197e-05
                            CHANNELS 6 Xposition Yposition Zposition Zrotation Xrotation Yrotation
                            End Site
                            {
                              OFFSET 3.4121e-05 -2.59997 0
                            }
                          }
                        }
                      }
                    }
                    JOINT LeftHandPinky
                    {
                      OFFSET -0.749993 -1.75001 -1.84999
                      CHANNELS 6 Xposition Yposition Zposition Zrotation Xrotation Yrotation
                      JOINT LeftHandPinky1
                      {
                        OFFSET 2.19941e-05 -7.15 -0.99999
                        CHANNELS 6 Xposition Yposition Zposition Zrotation Xrotation Yrotation
                        JOINT LeftHandPinky2
                        {
                          OFFSET 0 -2.99999 -1.05236e-05
                          CHANNELS 6 Xposition Yposition Zposition Zrotation Xrotation Yrotation
                          JOINT LeftHandPinky3
                          {
                            OFFSET 1.20692e-05 -2.35003 -1.7469e-05
                            CHANNELS 6 Xposition Yposition Zposition Zrotation Xrotation Yrotation
                            End Site
                            {
                              OFFSET 0 -2.09997 1.5361e-05
                            }
                          }
                        }
                      }
                    }
                  }
                }
              }
            }
          }
          JOINT RightShoulder
          {
            OFFSET -4.99981 17.0001 0.000184741
            CHANNELS 6 Xposition Yposition Zposition Zrotation Xrotation Yrotation
            JOINT RightShoulder2
            {
              OFFSET -6.45 0 0
              CHANNELS 6 Xposition Yposition Zposition Zrotation Xrotation Yrotation
              JOINT RightArm
              {
                OFFSET -6.45001 -0.000336599 -0.00112477
                CHANNELS 6 Xposition Yposition Zposition Zrotation Xrotation Yrotation
                JOINT RightForeArm
                {
                  OFFSET 0 -32.4 -2.00002
                  CHANNELS 6 Xposition Yposition Zposition Zrotation Xrotation Yrotation
                  JOINT RightHand
                  {
                    OFFSET -1.83206e-05 -25.65 2.00004
                    CHANNELS 6 Xposition Yposition Zposition Zrotation Xrotation Yrotation
                    JOINT RightHandThumb1
                    {
                      OFFSET 0.500011 -1.49997 2.64997
                      CHANNELS 6 Xposition Yposition Zposition Zrotation Xrotation Yrotation
                      JOINT RightHandThumb2
                      {
                        OFFSET 0 -3.8 3.70002
                        CHANNELS 6 Xposition Yposition Zposition Zrotation Xrotation Yrotation
                        JOINT RightHandThumb3
                        {
                          OFFSET -2.04467e-05 -3.00002 2.69998
                          CHANNELS 6 Xposition Yposition Zposition Zrotation Xrotation Yrotation
                          End Site
                          {
                            OFFSET 1.29922e-05 -2.3 1.79999
                          }
                        }
                      }
                    }
                    JOINT RightHandIndex
                    {
                      OFFSET 0 -1.89998 1.60001
                      CHANNELS 6 Xposition Yposition Zposition Zrotation Xrotation Yrotation
                      JOINT RightHandIndex1
                      {
                        OFFSET 0 -8.30002 1.89998
                        CHANNELS 6 Xposition Yposition Zposition Zrotation Xrotation Yrotation
                        JOINT RightHandIndex2
                        {
                          OFFSET 0 -4.5 1.49244e-05
                          CHANNELS 6 Xposition Yposition Zposition Zrotation Xrotation Yrotation
                          JOINT RightHandIndex3
                          {
                            OFFSET 7.62383e-05 -3.39998 0
                            CHANNELS 6 Xposition Yposition Zposition Zrotation Xrotation Yrotation
                            End Site
                            {
                              OFFSET -2.77067e-05 -2.60003 -2.0977e-05
                            }
                          }
                        }
                      }
                    }
                    JOINT RightHandMiddle
                    {
                      OFFSET 0.250007 -2.19999 0.399976
                      CHANNELS 6 Xposition Yposition Zposition Zrotation Xrotation Yrotation
                      JOINT RightHandMiddle1
                      {
                        OFFSET -1.77289e-05 -8.30001 1
                        CHANNELS 6 Xposition Yposition Zposition Zrotation Xrotation Yrotation
                        JOINT RightHandMiddle2
                        {
                          OFFSET -3.00096e-05 -4.64997 1.61068e-05
                          CHANNELS 6 Xposition Yposition Zposition Zrotation Xrotation Yrotation
                          JOINT RightHandMiddle3
                          {
                            OFFSET 2.48345e-05 -3.3 -1.22154e-05
                            CHANNELS 6 Xposition Yposition Zposition Zrotation Xrotation Yrotation
                            End Site
                            {
                              OFFSET 0 -2.7 0
                            }
                          }
                        }
                      }
                    }
                    JOINT RightHandRing
                    {
                      OFFSET 0.50002 -2.14995 -0.800009
                      CHANNELS 6 Xposition Yposition Zposition Zrotation Xrotation Yrotation
                      JOINT RightHandRing1
                      {
                        OFFSET 0 -7.75002 -0.200004
                        CHANNELS 6 Xposition Yposition Zposition Zrotation Xrotation Yrotation
                        JOINT RightHandRing2
                        {
                          OFFSET 0 -3.79998 0
                          CHANNELS 6 Xposition Yposition Zposition Zrotation Xrotation Yrotation
                          JOINT RightHandRing3
                          {
                            OFFSET -1.02485e-05 -3.40001 0
                            CHANNELS 6 Xposition Yposition Zposition Zrotation Xrotation Yrotation
                            End Site
                            {
                              OFFSET -3.23961e-05 -2.6 0
                            }
                          }
                        }
                      }
                    }
                    JOINT RightHandPinky
                    {
                      OFFSET 0.750009 -1.74997 -1.85
                      CHANNELS 6 Xposition Yposition Zposition Zrotation Xrotation Yrotation
                      JOINT RightHandPinky1
                      {
                        OFFSET 1.33774e-05 -7.14999 -1.00001
                        CHANNELS 6 Xposition Yposition Zposition Zrotation Xrotation Yrotation
                        JOINT RightHandPinky2
                        {
                          OFFSET -1.1083e-05 -3.00002 0
                          CHANNELS 6 Xposition Yposition Zposition Zrotation Xrotation Yrotation
                          JOINT RightHandPinky3
                          {
                            OFFSET -1.39291e-05 -2.35 -1.78125e-05
                            CHANNELS 6 Xposition Yposition Zposition Zrotation Xrotation Yrotation
                            End Site
                            {
                              OFFSET 0 -2.09997 -3.3312e-05
                            }
                          }
                        }
                      }
                    }
                  }
                }
              }
            }
          }
        }
      }
    }
  }
  JOINT LeftUpLeg
  {
    OFFSET 8.00002 0 -2.19852e-05
    CHANNELS 6 Xposition Yposition Zposition Zrotation Xrotation Yrotation
    JOINT LeftLeg
    {
      OFFSET -1.9071e-05 -45.0001 -1.00001
      CHANNELS 6 Xposition Yposition Zposition Zrotation Xrotation Yrotation
      JOINT LeftFoot
      {
        OFFSET -3.7896e-05 -41 -1.99998
        CHANNELS 6 Xposition Yposition Zposition Zrotation Xrotation Yrotation
        JOINT LeftToeBase
        {
          OFFSET -1.17872e-05 -7.5 12.5
          CHANNELS 6 Xposition Yposition Zposition Zrotation Xrotation Yrotation
          JOINT LeftFootToe
          {
            OFFSET 0 0 4
            CHANNELS 6 Xposition Yposition Zposition Zrotation Xrotation Yrotation
            End Site
            {
              OFFSET 0 0 0
            }
          }
        }
      }
    }
  }
  JOINT RightUpLeg
  {
    OFFSET -8.00002 0 2.19852e-05
    CHANNELS 6 Xposition Yposition Zposition Zrotation Xrotation Yrotation
    JOINT RightLeg
    {
      OFFSET 2.06563e-05 -45 -1.00004
      CHANNELS 6 Xposition Yposition Zposition Zrotation Xrotation Yrotation
      JOINT RightFoot
      {
        OFFSET -1.09156e-05 -41 -1.99998
        CHANNELS 6 Xposition Yposition Zposition Zrotation Xrotation Yrotation
        JOINT RightToeBase
        {
          OFFSET 1.4246e-05 -7.5 12.5
          CHANNELS 6 Xposition Yposition Zposition Zrotation Xrotation Yrotation
          JOINT RightFootToe
          {
            OFFSET 0 0 4
            CHANNELS 6 Xposition Yposition Zposition Zrotation Xrotation Yrotation
            End Site
            {
              OFFSET 0 0 0
            }
          }
        }
      }
    }
  }
}
MOTION
Frames:	3
Frame Time:	0.0111111
-395.125 91.3804 635.332 2.35488 5.61597 -113.665 2.27374e-13 8 -2.84217e-14 8.96909 9.07285 5.49923 0 8 -5.68434e-14 1.26026 5.37101 2.10964 1.13687e-13 8 2.84217e-14 0.654577 2.68418 1.06915 -1.13687e-13 8 -2.84217e-14 0.653805 2.67966 1.06773 0 17 5.68434e-14 -3.2702 3.70587 8.17599 1.13687e-13 10.8 0 -8.4703 7.86507 19.5581 5 17 5.68434e-14 0.328656 -4.57192 5.95491 6.45 1.42109e-14 1.13687e-13 -0.838356 -1.08209 -1.80753 6.45 -1.42109e-14 -5.68434e-14 45.8213 -40.9687 24.8953 -1.13687e-13 -32.4 -2 -6.0079 -15.3668 39.0526 0 -25.65 2 25.5792 26.9151 -27.8467 -0.5 -1.5 2.65 -3.93276 -29.6113 0.283192 0 -3.8 3.7 -0.0690485 25.852 0.0160285 0 -3 2.7 -0.0147076 56.5857 0.012183 0 -1.9 1.6 -1.72216e-06 -2.74685e-06 3.97357e-07 -5.68434e-14 -8.3 1.9 -1.17666 -0.27206 0.0909165 -5.68434e-14 -4.5 -5.68434e-14 -52.3075 -0.00122993 -0.00809658 0 -3.4 0 -36.1102 0.00551819 -0.0140674 -0.25 -2.2 0.4 -1.72216e-06 -2.74685e-06 3.97357e-07 0 -8.3 1 -4.29941 -3.67284 0.112904 0 -4.65 5.68434e-14 -15.7796 -0.00287501 -0.0016841 0 -3.3 0 -13.0476 -0.00177461 -0.00681246 -0.5 -2.15 -0.8 -1.72216e-06 -2.74685e-06 3.97357e-07 1.13687e-13 -7.75 -0.2 -11.5222 -10.498 -0.473586 1.13687e-13 -3.8 0 -0.000724793 0.192181 6.43946e-05 0 -3.4 0 1.02017e-05 0.189317 -0.00167515 -0.75 -1.75 -1.85 -1.72216e-06 -2.74685e-06 3.97357e-07 -5.68434e-14 -7.15 -1 -13.8993 -15.6769 -1.1435 0 -3 0 -6.00491 -0.00440876 0.00586439 0 -2.35 0 -5.5222 -0.00380122 0.00224433 -5 17 5.68434e-14 -1.33857 -6.48635 6.74222 -6.45 2.84217e-14 0 -1.47713 1.56721 -4.61183 -6.45 0 0 -3.86683 -23.4112 18.5683 1.13687e-13 -32.4 -2 -11.8389 -66.8824 -7.9379 0 -25.65 2 -29.6946 8.43754 60.1552 0.5 -1.5 2.65 9.77699 -19.0675 2.07026 0 -3.8 3.7 0.167698 18.1185 -0.0677753 0 -3 2.7 0.046027 27.3522 -0.0155839 -1.42109e-14 -1.9 1.6 1.59028e-15 0 -0 1.42109e-14 -8.3 1.9 2.61699 -13.2474 0.207166 0 -4.5 0 3.06131 -0.648964 -0.306781 0 -3.4 0 -0.00337201 -0.600143 -0.307144 0.25 -2.2 0.4 1.59028e-15 0 -0 1.42109e-14 -8.3 1 1.77836 -10.9784 0.043119 2.84217e-14 -4.65 -1.13687e-13 59.2755 0.0531247 -0.0833844 1.13687e-13 -3.3 0 40.1666 0.00194217 -0.0798709 0.5 -2.15 -0.8 1.59028e-15 0 -0 -5.68434e-14 -7.75 -0.2 3.23067 -12.9032 0.0909851 0 -3.8 0 60.6033 0.0120735 -0.0673888 5.68434e-14 -3.4 -1.13687e-13 42.6647 -0.0379376 -0.0493611 0.75 -1.75 -1.85 1.59028e-15 0 -0 -1.42109e-14 -7.15 -1 2.2617 -7.97949 0.0259389 0 -3 1.13687e-13 85.2241 -0.000418623 -0.0427936 0 -2.35 1.13687e-13 76.5824 -0.0956275 -0.0235657 8 2.84217e-14 -8.52651e-14 20.6752 -25.5443 21.6625 0 -45 -1 -1.69887 2.43695 -0.563208 -1.13687e-13 -41 -2 -4.7707 12.4351 -35.0042 0 -7.5 12.5 -9.88377e-11 4.41076e-06 5.23519e-11 0 1.42109e-14 4 -3.42655 -1.54746 -1.82117 -8 0 0 7.14308 -12.2769 -3.98063 0 -45 -1 0.0896661 18.0017 -1.02109 1.13687e-13 -41 -2 -1.92295 -5.76712 -22.57 0 -7.5 12.5 2.63408e-08 0.565258 -2.29653e-06 0 4.44089e-16 4 5.83284 -3.36405 24.275 
-395.144 91.3804 635.347 2.35184 5.61189 -113.683 0 8 -2.84217e-14 9.05809 9.04901 5.49369 0 8 2.84217e-14 1.28903 5.37967 2.12038 0 8 -2.84217e-14 0.669138 2.687 1.07489 1.13687e-13 8 0 0.668637 2.6814 1.07329 0 17 2.84217e-14 -3.29595 3.74465 8.17484 0 10.8 5.68434e-14 -8.54042 7.94911 19.5673 5 17 -2.84217e-14 0.364305 -4.56972 6.03566 6.45 -1.42109e-14 -5.68434e-14 -0.836304 -1.08688 -1.81071 6.45 0 -5.68434e-14 45.9059 -41.2086 24.9028 0 -32.4 -2 -6.09842 -15.0622 39.0351 1.13687e-13 -25.65 2 26.4644 26.7865 -28.1107 -0.5 -1.5 2.65 -4.00519 -29.2521 0.0994978 -5.68434e-14 -3.8 3.7 -0.0692141 26.1865 0.0158529 1.13687e-13 -3 2.7 -0.0137744 56.4253 0.00971694 5.68434e-14 -1.9 1.6 -1.72216e-06 -2.74685e-06 3.97357e-07 -5.68434e-14 -8.3 1.9 -1.18024 -0.592631 0.0835449 5.68434e-14 -4.5 0 -52.3032 -0.00124601 -0.0079293 -1.13687e-13 -3.4 0 -36.1069 0.00528299 -0.0146087 -0.25 -2.2 0.4 -1.72216e-06 -2.74685e-06 3.97357e-07 -5.68434e-14 -8.3 1 -4.33398 -3.89368 0.102191 1.13687e-13 -4.65 -5.68434e-14 -15.9642 -0.00250399 -0.00144544 0 -3.3 -5.68434e-14 -13.1748 -0.00148329 -0.0068664 -0.5 -2.15 -0.8 -1.72216e-06 -2.74685e-06 3.97357e-07 1.13687e-13 -7.75 -0.2 -11.6224 -10.5738 -0.48752 1.13687e-13 -3.8 5.68434e-14 -0.000705566 0.189867 6.35309e-05 0 -3.4 0 1.00001e-05 0.18704 -0.00164155 -0.75 -1.75 -1.85 -1.72216e-06 -2.74685e-06 3.97357e-07 0 -7.15 -1 -14.0385 -15.6674 -1.15594 0 -3 0 -5.99287 -0.00436159 0.00548592 -1.13687e-13 -2.35 -5.68434e-14 -5.51193 -0.00376391 0.00191446 -5 17 -2.84217e-14 -1.32597 -6.60421 6.78334 -6.45 -2.84217e-14 -5.68434e-14 -1.48523 1.57186 -4.62024 -6.45 2.84217e-14 8.52651e-14 -3.90275 -23.4169 18.6469 0 -32.4 -2 -11.7653 -66.6185 -7.65593 -1.13687e-13 -25.65 2 -30.0864 8.30448 61.114 0.5 -1.5 2.65 10.1941 -19.3912 2.1561 2.84217e-14 -3.8 3.7 0.175322 18.43 -0.071693 0 -3 2.7 0.040394 26.8369 -0.0159769 8.52651e-14 -1.9 1.6 3.18055e-15 6.36111e-15 3.18055e-15 -2.84217e-14 -8.3 1.9 2.7249 -13.5198 0.223406 0 -4.5 -1.13687e-13 3.06132 -0.648482 -0.306474 2.84217e-14 -3.4 1.13687e-13 -0.00336498 -0.599741 -0.306668 0.25 -2.2 0.4 3.18055e-15 6.36111e-15 3.18055e-15 2.84217e-14 -8.3 1 1.88542 -11.3271 0.0565224 0 -4.65 1.13687e-13 61.1464 0.0587943 -0.0744368 1.13687e-13 -3.3 0 41.736 0.00397638 -0.0820916 0.5 -2.15 -0.8 3.18055e-15 6.36111e-15 3.18055e-15 0 -7.75 -0.2 2.77534 -12.735 0.0407767 0 -3.8 1.13687e-13 61.9756 0.00840678 -0.0645594 0 -3.4 0 43.9118 -0.0401745 -0.0469479 0.75 -1.75 -1.85 3.18055e-15 6.36111e-15 3.18055e-15 -5.68434e-14 -7.15 -1 1.69866 -8.23208 -0.0181856 0 -3 0 85.9568 -0.000173281 -0.0344099 -2.84217e-14 -2.35 0 78.3667 -0.0787869 -0.0313669 8 0 -8.52651e-14 20.6643 -25.5323 21.6806 -1.13687e-13 -45 -1 -1.69841 2.44356 -0.55447 1.13687e-13 -41 -2 -4.76261 12.4237 -35.0177 1.13687e-13 -7.5 12.5 -9.88385e-11 4.41076e-06 5.23392e-11 0 0 4 -3.44057 -1.55027 -1.82134 -8 0 2.84217e-14 7.12503 -12.2671 -3.97681 1.13687e-13 -45 -1 0.0895096 18.0019 -1.02114 -1.13687e-13 -41 -2 -1.90799 -5.76754 -22.5701 0 -7.5 12.5 2.63696e-08 0.565977 -2.29653e-06 0 -8.88178e-16 4 5.81894 -3.38489 24.2754 
-395.16 91.3803 635.362 2.34829 5.60798 -113.698 -1.13687e-13 8 -5.68434e-14 9.14478 9.02377 5.48921 0 8 2.84217e-14 1.31819 5.38987 2.13129 0 8 -5.68434e-14 0.683897 2.69098 1.08072 -1.13687e-13 8 -2.84217e-14 0.683331 2.68692 1.07912 1.13687e-13 17 1.13687e-13 -3.32094 3.78264 8.17432 1.13687e-13 10.8 0 -8.60867 8.03138 19.5783 5 17 5.68434e-14 0.406467 -4.56661 6.12795 6.45 2.84217e-14 -5.68434e-14 -0.834649 -1.0908 -1.81071 6.45 0 5.68434e-14 45.9988 -41.4569 24.934 -1.13687e-13 -32.4 -2 -6.21289 -14.7245 39.0076 -5.68434e-14 -25.65 2 27.3383 26.6444 -28.3793 -0.5 -1.5 2.65 -4.081 -28.9082 -0.0928261 -1.7053e-13 -3.8 3.7 -0.0693641 26.5268 0.0156735 -5.68434e-14 -3 2.7 -0.0135757 56.2252 0.00838325 5.68434e-14 -1.9 1.6 -1.72216e-06 -2.74685e-06 3.97357e-07 5.68434e-14 -8.3 1.9 -1.18741 -0.920858 0.075652 5.68434e-14 -4.5 0 -52.2832 -0.00126732 -0.00767406 0 -3.4 -5.68434e-14 -36.0927 0.00498995 -0.0150938 -0.25 -2.2 0.4 -1.72216e-06 -2.74685e-06 3.97357e-07 -5.68434e-14 -8.3 1 -4.37098 -4.11587 0.0906591 1.13687e-13 -4.65 0 -16.1339 -0.00212155 -0.00118197 0 -3.3 0 -13.291 -0.0011925 -0.00685866 -0.5 -2.15 -0.8 -1.72216e-06 -2.74685e-06 3.97357e-07 0 -7.75 -0.2 -11.7239 -10.6398 -0.501487 1.13687e-13 -3.8 -5.68434e-14 -0.000686493 0.187536 6.26604e-05 1.13687e-13 -3.4 5.68434e-14 9.79968e-06 0.184748 -0.00160814 -0.75 -1.75 -1.85 -1.72216e-06 -2.74685e-06 3.97357e-07 0 -7.15 -1 -14.1764 -15.641 -1.16705 0 -3 5.68434e-14 -5.97829 -0.00424648 0.00511814 -1.13687e-13 -2.35 0 -5.49942 -0.00366812 0.00160325 -5 17 0 -1.31106 -6.72294 6.81706 -6.45 2.84217e-14 5.68434e-14 -1.49333 1.57535 -4.62848 -6.45 2.84217e-14 -2.84217e-14 -3.92623 -23.3847 18.6926 0 -32.4 -2 -11.6876 -66.3218 -7.43116 0 -25.65 2 -30.4268 8.05099 61.9175 0.5 -1.5 2.65 10.5431 -19.7145 2.22985 2.84217e-14 -3.8 3.7 0.187446 18.8743 -0.0768811 0 -3 2.7 0.0342499 26.3531 -0.0163766 2.84217e-14 -1.9 1.6 3.18055e-15 9.54166e-15 3.18055e-15 2.84217e-14 -8.3 1.9 2.80846 -13.7282 0.236325 0 -4.5 -1.13687e-13 3.06132 -0.647999 -0.306166 2.84217e-14 -3.4 1.13687e-13 -0.00335785 -0.599332 -0.306185 0.25 -2.2 0.4 3.18055e-15 9.54166e-15 3.18055e-15 5.68434e-14 -8.3 1 2.00919 -11.6412 0.0724571 -2.84217e-14 -4.65 -1.13687e-13 63.2298 0.0585765 -0.0599498 0 -3.3 -1.13687e-13 43.5782 0.0049365 -0.0764188 0.5 -2.15 -0.8 3.18055e-15 9.54166e-15 3.18055e-15 -5.68434e-14 -7.75 -0.2 2.52082 -12.5281 0.0125231 2.84217e-14 -3.8 0 63.4358 0.00281488 -0.0599656 0 -3.4 1.13687e-13 45.2808 -0.0417216 -0.0415585 0.75 -1.75 -1.85 3.18055e-15 9.54166e-15 3.18055e-15 2.84217e-14 -7.15 -1 1.33803 -8.47453 -0.0516888 0 -3 0 86.7106 5.92547e-05 -0.0239516 0 -2.35 0 80.2559 -0.0570094 -0.0363538 8 2.84217e-14 0 20.6523 -25.5232 21.6923 0 -45 -1 -1.69793 2.44924 -0.545949 0 -41 -2 -4.75465 12.4081 -35.0267 0 -7.5 12.5 -9.88373e-11 4.41076e-06 5.23456e-11 0 1.42109e-14 4 -3.45651 -1.55118 -1.82151 -8 0 -5.68434e-14 7.10874 -12.2592 -3.96814 0 -45 -1 0.0893694 18.0021 -1.02121 0 -41 -2 -1.89414 -5.76577 -22.5748 0 -7.5 12.5 2.63984e-08 0.566696 -2.29653e-06 -1.13687e-13 4.44089e-16 4 5.80436 -3.40385 24.2758 
